<?xml version="1.0" encoding="utf-8"?>
<!-- Generator: Adobe Illustrator 23.0.1, SVG Export Plug-In . SVG Version: 6.00 Build 0)  -->
<svg version="1.1" id="Layer_1" xmlns="http://www.w3.org/2000/svg" xmlns:xlink="http://www.w3.org/1999/xlink" x="0px" y="0px"
	 viewBox="0 0 512 512" style="enable-background:new 0 0 512 512;" xml:space="preserve">
<style type="text/css">
	.st0{fill:#C1BFBF;}
	.st1{fill:none;}
	.st2{font-family:'MyriadPro-Regular';}
	.st3{font-size:34.082px;}
</style>
<g>
	<g>
		<path class="st0" d="M242.9,216.4l3.5-10.1l-6.8-7.4c-1-1.2-2.6-1.9-4.3-1.9s-3.3,0.8-4.3,2l-32.5,39.2v-66.8c0.3-1.7,1.6-3,3.4-3
			h46.1l-2.8-8.2h-47.8c-4,0-7.2,3.3-7.2,7.3v84c0,4,3.2,7.3,7.2,7.3h62.6L242.9,216.4z"/>
	</g>
	<g>
		<path class="st0" d="M292.9,208.5c6.8,0,12.3-5.5,12.3-12.3c0-6.8-5.5-12.3-12.3-12.3c-6.8,0-12.3,5.5-12.3,12.3
			C280.6,203,286.1,208.5,292.9,208.5z"/>
		<path class="st0" d="M314.5,167.5h-52.8l2.8,8.2H310c1.8,0,3.2,1.3,3.3,3.1l0.1,66.8L288,218.2c-0.8-0.9-1.9-1.6-3.3-1.6
			c-1.3,0-2.2,0.6-3.3,1.5l-4.8,4.1c-1,0.7-1.8,1.2-3,1.2c-1.1,0-2.1-0.4-2.8-1.1c-0.1-0.1-0.2-0.2-0.3-0.3
			c-0.2-0.2-0.5-0.5-0.8-0.7l-7-7.5l-3.5,10.1l11.3,27.7l5.9,14.5h38c4,0,7.2-3.3,7.2-7.3v-84C321.6,170.7,318.5,167.5,314.5,167.5z
			"/>
	</g>
	<polyline class="st1" points="304.6,258.6 304.6,207.8 304.6,168.3 304.6,160.1 	"/>
	<polyline class="st1" points="237.7,258.6 237.7,207.8 237.7,168.3 237.7,160.1 	"/>
</g>
<text transform="matrix(1 0 0 1 132.2495 332.6523)" class="st0 st2 st3">Image Not Found</text>
</svg>
